<svg xmlns="http://www.w3.org/2000/svg" xmlns:xlink="http://www.w3.org/1999/xlink" xmlns:lucid="lucid" width="2146" height="934"><g transform="translate(-579 -430)" lucid:page-tab-id="ETTb6PXA3~D-"><path d="M2580 446a6 6 0 0 1 6-6h72.68a6 6 0 0 1 6 6v33.24a6 6 0 0 1-6 6H2586a6 6 0 0 1-6-6z" fill="#fff" fill-opacity="0"/><path d="M640 466a6 6 0 0 1 6-6h148a6 6 0 0 1 6 6v28a6 6 0 0 1-6 6H646a6 6 0 0 1-6-6z" fill-opacity="0"/><use xlink:href="#a" transform="matrix(1,0,0,1,652,472) translate(25.51953125000003 23.75217013888887)"/><path d="M920 466a6 6 0 0 1 6-6h148a6 6 0 0 1 6 6v28a6 6 0 0 1-6 6H926a6 6 0 0 1-6-6z" fill-opacity="0"/><use xlink:href="#b" transform="matrix(1,0,0,1,932,472) translate(7.9305555555556 23.75217013888887)"/><path d="M1440 466a6 6 0 0 1 6-6h148a6 6 0 0 1 6 6v28a6 6 0 0 1-6 6h-148a6 6 0 0 1-6-6z" fill-opacity="0"/><use xlink:href="#c" transform="matrix(1,0,0,1,1452,472) translate(19.345486111111143 23.75217013888887)"/><path d="M2060 466a6 6 0 0 1 6-6h148a6 6 0 0 1 6 6v28a6 6 0 0 1-6 6h-148a6 6 0 0 1-6-6z" fill-opacity="0"/><use xlink:href="#d" transform="matrix(1,0,0,1,2072,472) translate(26.821614583333357 23.75217013888887)"/><path d="M2365 466a6 6 0 0 1 6-6h148a6 6 0 0 1 6 6v28a6 6 0 0 1-6 6h-148a6 6 0 0 1-6-6z" fill-opacity="0"/><use xlink:href="#e" transform="matrix(1,0,0,1,2377,472) translate(13.38845486111115 23.75217013888887)"/><path d="M640 926a6 6 0 0 1 6-6h148a6 6 0 0 1 6 6v108a6 6 0 0 1-6 6H646a6 6 0 0 1-6-6z" stroke="#000" stroke-width="2" fill-opacity="0"/><use xlink:href="#f" transform="matrix(1,0,0,1,652,932) translate(14.039496527777814 41.75217013888887)"/><use xlink:href="#g" transform="matrix(1,0,0,1,652,932) translate(21.9225260416667 72.0147569444444)"/><path d="M640 566a6 6 0 0 1 6-6h148a6 6 0 0 1 6 6v108a6 6 0 0 1-6 6H646a6 6 0 0 1-6-6z" stroke="#000" stroke-width="2" fill-opacity="0"/><use xlink:href="#h" transform="matrix(1,0,0,1,652,572) translate(27.749348958333357 41.75217013888887)"/><use xlink:href="#g" transform="matrix(1,0,0,1,652,572) translate(21.9225260416667 72.0147569444444)"/><path d="M920 926a6 6 0 0 1 6-6h148a6 6 0 0 1 6 6v108a6 6 0 0 1-6 6H926a6 6 0 0 1-6-6z" stroke="#000" stroke-width="2" fill-opacity="0"/><use xlink:href="#i" transform="matrix(1,0,0,1,932,932) translate(41.643663194444464 41.75217013888887)"/><use xlink:href="#j" transform="matrix(1,0,0,1,932,932) translate(13.008680555555593 72.0147569444444)"/><path d="M920 566a6 6 0 0 1 6-6h148a6 6 0 0 1 6 6v108a6 6 0 0 1-6 6H926a6 6 0 0 1-6-6z" stroke="#000" stroke-width="2" fill-opacity="0"/><use xlink:href="#k" transform="matrix(1,0,0,1,932,572) translate(22.8014322916667 41.75217013888887)"/><use xlink:href="#l" transform="matrix(1,0,0,1,932,572) translate(17.956597222222257 72.0147569444444)"/><path d="M920 746a6 6 0 0 1 6-6h148a6 6 0 0 1 6 6v108a6 6 0 0 1-6 6H926a6 6 0 0 1-6-6z" stroke="#000" stroke-width="2" fill-opacity="0"/><use xlink:href="#m" transform="matrix(1,0,0,1,932,752) translate(31.736979166666686 41.489583333333336)"/><use xlink:href="#n" transform="matrix(1,0,0,1,932,752) translate(-4.173394097222172 71.75217013888887)"/><path d="M1200 926a6 6 0 0 1 6-6h148a6 6 0 0 1 6 6v108a6 6 0 0 1-6 6h-148a6 6 0 0 1-6-6z" stroke="#000" stroke-width="2" fill-opacity="0"/><use xlink:href="#o" transform="matrix(1,0,0,1,1212,932) translate(8.093315972222257 41.75217013888887)"/><use xlink:href="#p" transform="matrix(1,0,0,1,1212,932) translate(80.68446180555554 41.75217013888887)"/><use xlink:href="#q" transform="matrix(1,0,0,1,1212,932) translate(27.91210937500003 72.0147569444444)"/><path d="M1440 746a6 6 0 0 1 6-6h148a6 6 0 0 1 6 6v108a6 6 0 0 1-6 6h-148a6 6 0 0 1-6-6z" stroke="#000" stroke-width="2" fill-opacity="0"/><use xlink:href="#r" transform="matrix(1,0,0,1,1452,752) translate(14.7447916666667 41.75217013888887)"/><use xlink:href="#p" transform="matrix(1,0,0,1,1452,752) translate(74.03298611111111 41.75217013888887)"/><use xlink:href="#q" transform="matrix(1,0,0,1,1452,752) translate(27.91210937500003 72.0147569444444)"/><path d="M1720 926a6 6 0 0 1 6-6h148a6 6 0 0 1 6 6v108a6 6 0 0 1-6 6h-148a6 6 0 0 1-6-6z" stroke="#000" stroke-width="2" fill-opacity="0"/><use xlink:href="#s" transform="matrix(1,0,0,1,1732,932) translate(21.944227430555586 41.75217013888887)"/><use xlink:href="#t" transform="matrix(1,0,0,1,1732,932) translate(45.62586805555557 72.0147569444444)"/><path d="M2060 566a6 6 0 0 1 6-6h148a6 6 0 0 1 6 6v108a6 6 0 0 1-6 6h-148a6 6 0 0 1-6-6z" stroke="#000" stroke-width="2" fill-opacity="0"/><use xlink:href="#u" transform="matrix(1,0,0,1,2072,572) translate(10.220052083333371 56.75217013888887)"/><use xlink:href="#v" transform="matrix(1,0,0,1,2072,572) translate(90.00520833333331 56.75217013888887)"/><path d="M2365 926a6 6 0 0 1 6-6h148a6 6 0 0 1 6 6v108a6 6 0 0 1-6 6h-148a6 6 0 0 1-6-6z" stroke="#000" stroke-width="2" fill-opacity="0"/><use xlink:href="#w" transform="matrix(1,0,0,1,2377,932) translate(25.86132812500003 41.75217013888887)"/><use xlink:href="#x" transform="matrix(1,0,0,1,2377,932) translate(16.122829861111157 72.0147569444444)"/><path d="M2365 566a6 6 0 0 1 6-6h148a6 6 0 0 1 6 6v108a6 6 0 0 1-6 6h-148a6 6 0 0 1-6-6z" stroke="#000" stroke-width="2" fill-opacity="0"/><use xlink:href="#y" transform="matrix(1,0,0,1,2377,572) translate(36.088107638888914 41.75217013888887)"/><use xlink:href="#g" transform="matrix(1,0,0,1,2377,572) translate(21.9225260416667 72.0147569444444)"/><path d="M801.5 980h101.12" stroke="#3a414a" fill="none"/><path d="M801.5 980.48h-.5v-.96h.5z" stroke="#3a414a" stroke-width=".05" fill="#3a414a"/><path d="M917.38 980l-14.26 4.63v-9.26z" stroke="#3a414a" fill="#3a414a"/><path d="M801.5 620h101.12" stroke="#3a414a" fill="none"/><path d="M801.5 620.48h-.5v-.96h.5z" stroke="#3a414a" stroke-width=".05" fill="#3a414a"/><path d="M917.38 620l-14.26 4.63v-9.26z" stroke="#3a414a" fill="#3a414a"/><path d="M801.5 620H854a6 6 0 0 1 6 6v168a6 6 0 0 0 6 6h36.62" stroke="#3a414a" fill="none"/><path d="M801.5 620.48h-.5v-.96h.5z" stroke="#3a414a" stroke-width=".05" fill="#3a414a"/><path d="M917.38 800l-14.26 4.63v-9.26z" stroke="#3a414a" fill="#3a414a"/><path d="M1200 566a6 6 0 0 1 6-6h148a6 6 0 0 1 6 6v108a6 6 0 0 1-6 6h-148a6 6 0 0 1-6-6z" stroke="#000" stroke-width="2" fill-opacity="0"/><use xlink:href="#z" transform="matrix(1,0,0,1,1212,572) translate(41.242187500000014 26.75217013888887)"/><use xlink:href="#A" transform="matrix(1,0,0,1,1212,572) translate(21.73263888888892 57.01475694444441)"/><use xlink:href="#B" transform="matrix(1,0,0,1,1212,572) translate(14.961805555555586 87.27734374999994)"/><path d="M1081.5 620h101.12" stroke="#3a414a" fill="none"/><path d="M1081.5 620.48h-.5v-.96h.5z" stroke="#3a414a" stroke-width=".05" fill="#3a414a"/><path d="M1197.38 620l-14.26 4.63v-9.26z" stroke="#3a414a" fill="#3a414a"/><path d="M1361.5 620h32.5a6 6 0 0 1 6 6v168a6 6 0 0 0 6 6h16.62" stroke="#3a414a" fill="none"/><path d="M1361.5 620.48h-.5v-.96h.5z" stroke="#3a414a" stroke-width=".05" fill="#3a414a"/><path d="M1437.38 800l-14.26 4.63v-9.26z" stroke="#3a414a" fill="#3a414a"/><path d="M1601.5 800h52.5a6 6 0 0 1 6 6v168a6 6 0 0 0 6 6h36.62" stroke="#3a414a" fill="none"/><path d="M1601.5 800.48h-.5v-.96h.5z" stroke="#3a414a" stroke-width=".05" fill="#3a414a"/><path d="M1717.38 980l-14.26 4.63v-9.26z" stroke="#3a414a" fill="#3a414a"/><path d="M1081.5 800h52.5a6 6 0 0 0 6-6V626a6 6 0 0 1 6-6h36.62" stroke="#3a414a" fill="none"/><path d="M1081.5 800.48h-.5v-.96h.5z" stroke="#3a414a" stroke-width=".05" fill="#3a414a"/><path d="M1197.38 620l-14.26 4.63v-9.26z" stroke="#3a414a" fill="#3a414a"/><path d="M1601.5 800H1974a6 6 0 0 0 6-6V626a6 6 0 0 1 6-6h56.62" stroke="#3a414a" fill="none"/><path d="M1601.5 800.48h-.5v-.96h.5z" stroke="#3a414a" stroke-width=".05" fill="#3a414a"/><path d="M2057.38 620l-14.26 4.63v-9.26z" stroke="#3a414a" fill="#3a414a"/><path d="M1361.5 980h32.5a6 6 0 0 0 6-6V806a6 6 0 0 1 6-6h16.62" stroke="#3a414a" fill="none"/><path d="M1361.5 980.48h-.5v-.96h.5z" stroke="#3a414a" stroke-width=".05" fill="#3a414a"/><path d="M1437.38 800l-14.26 4.63v-9.26z" stroke="#3a414a" fill="#3a414a"/><path d="M2221.5 620h126.12" stroke="#3a414a" fill="none"/><path d="M2221.5 620.48h-.5v-.96h.5z" stroke="#3a414a" stroke-width=".05" fill="#3a414a"/><path d="M2362.38 620l-14.26 4.63v-9.26z" stroke="#3a414a" fill="#3a414a"/><path d="M2027.77 945.27H1881.5v-.94h146.27zm319.84 0h-130.36v-.94h130.38z" stroke="#3a414a" stroke-width=".05" fill="#3a414a"/><path d="M1881.5 945.27h-.5v-.94h.5z" fill="#3a414a"/><path stroke="#3a414a" stroke-width=".05" fill="#3a414a"/><path d="M2362.38 944.8l-14.27 4.63v-9.26z" fill="#3a414a"/><path d="M2363.92 944.8l-16.28 5.3v-10.6zm-15.33 3.98l12.24-3.98-12.25-3.98z" stroke="#3a414a" stroke-width=".05" fill="#3a414a"/><use xlink:href="#C" transform="matrix(1,0,0,1,2027.7647243518554,932.6298648766195) translate(0.0049999999999954525 19.00173611111111)"/><use xlink:href="#D" transform="matrix(1,0,0,1,2027.7647243518554,932.6298648766195) translate(121.9754861111111 19.00173611111111)"/><path d="M1970.9 1011.67h-73.52v-.94h73.5zm392.6 0h-89.4v-.94h89.4z" stroke="#3a414a" stroke-width=".05" fill="#3a414a"/><path d="M2364 1011.67h-.5v-.94h.5z" fill="#3a414a"/><path stroke="#3a414a" stroke-width=".05" fill="#3a414a"/><path d="M1896.88 1015.84l-14.26-4.64 14.27-4.63z" fill="#3a414a"/><path d="M1897.36 1016.5l-16.28-5.3 16.28-5.3zm-13.2-5.3l12.25 3.98v-7.96z" stroke="#3a414a" stroke-width=".05" fill="#3a414a"/><g><use xlink:href="#C" transform="matrix(1,0,0,1,1970.889785833332,999.0298598764698) translate(0.0049999999999954525 19.00173611111111)"/><use xlink:href="#E" transform="matrix(1,0,0,1,1970.889785833332,999.0298598764698) translate(121.9754861111111 19.00173611111111)"/><use xlink:href="#F" transform="matrix(1,0,0,1,1970.889785833332,999.0298598764698) translate(205.18729166666668 19.00173611111111)"/><use xlink:href="#G" transform="matrix(1,0,0,1,1970.889785833332,999.0298598764698) translate(222.7827777777778 19.00173611111111)"/></g><path d="M1081.5 980h101.12" stroke="#3a414a" fill="none"/><path d="M1081.5 980.48h-.5v-.96h.5z" stroke="#3a414a" stroke-width=".05" fill="#3a414a"/><path d="M1197.38 980l-14.26 4.63v-9.26z" stroke="#3a414a" fill="#3a414a"/><path d="M1200 1206a6 6 0 0 1 6-6h148a6 6 0 0 1 6 6v108a6 6 0 0 1-6 6h-148a6 6 0 0 1-6-6z" stroke="#000" stroke-width="2" fill-opacity="0"/><g><use xlink:href="#H" transform="matrix(1,0,0,1,1212,1211.9999999999998) translate(35.78428819444447 41.75217013888887)"/><use xlink:href="#q" transform="matrix(1,0,0,1,1212,1211.9999999999998) translate(27.91210937500003 72.0147569444444)"/></g><path d="M1280 1198.5v-141.12" stroke="#3a414a" fill="none"/><path d="M1280.47 1199h-.94v-.5h.94z" stroke="#3a414a" stroke-width=".05" fill="#3a414a"/><path d="M1280 1042.62l4.63 14.26h-9.27z" stroke="#3a414a" fill="#3a414a"/><path d="M1081.5 980h82.5a6 6 0 0 0 6-6V806a6 6 0 0 1 6-6h246.62" stroke="#3a414a" fill="none"/><path d="M1081.5 980.48h-.5v-.96h.5z" stroke="#3a414a" stroke-width=".05" fill="#3a414a"/><path d="M1437.38 800l-14.26 4.63v-9.26z" stroke="#3a414a" fill="#3a414a"/><path d="M640 226a6 6 0 0 1 6-6h608a6 6 0 0 1 6 6v201.56a6 6 0 0 1-6 6H646a6 6 0 0 1-6-6z" stroke="#000" stroke-opacity="0" stroke-width="2" fill="#fff" fill-opacity="0"/><g><use xlink:href="#I" transform="matrix(1,0,0,1,645,225.00000000000009) translate(0 82.26171874999997)"/><use xlink:href="#J" transform="matrix(1,0,0,1,645,225.00000000000009) translate(99.02343749999994 82.26171874999997)"/><use xlink:href="#K" transform="matrix(1,0,0,1,645,225.00000000000009) translate(0 145.26953124999991)"/><use xlink:href="#L" transform="matrix(1,0,0,1,645,225.00000000000009) translate(199.89583333333317 145.26953124999991)"/></g><defs><path fill="#3a414a" d="M596-1225c-134-8-223 103-163 219 11 21 33 41 61 60s93 53 196 102c137 65 230 130 281 196s76 147 76 242c-3 286-231 426-539 426C352 20 214-9 94-68v-288c159 68 260 115 438 120 123 3 211-41 211-155 0-73-44-105-95-141-63-46-329-160-390-220-78-77-147-167-147-315 0-273 208-420 495-416 177 2 298 46 434 103l-100 241c-131-51-199-78-344-86" id="M"/><path fill="#3a414a" d="M836-686c0-141-77-236-213-236-140 0-206 98-215 236h428zm223 627C946-4 838 19 666 20 308 22 92-191 92-551c0-356 187-588 529-588 314 0 504 195 501 508v148H401c5 169 104 277 279 276 158-2 261-33 379-88v236" id="N"/><path fill="#3a414a" d="M795-1139c261-1 398 148 397 410V0H887v-653c-1-148-42-242-180-242-202 0-242 139-242 369V0H160v-1118h233l41 143h17c62-102 185-163 344-164" id="O"/><path fill="#3a414a" d="M836-831c-99-39-182-77-306-82-139-6-173 83-92 144 51 39 327 139 383 188 71 62 119 126 119 249C940-74 747 21 463 20 305 20 202 0 94-45v-252c93 45 253 94 379 94 111 0 166-32 166-96 0-68-41-76-98-109-79-46-276-119-333-167-74-61-116-125-116-252 0-368 555-367 836-224" id="P"/><path fill="#3a414a" d="M479-1407c-1 99-61 150-166 150-111 0-166-50-166-150 0-99 55-149 166-149s166 50 166 149zM465 0H160v-1118h305V0" id="Q"/><path fill="#3a414a" d="M549-1139c43 0 163 15 194 21h390v155l-175 45c32 50 48 106 48 168 2 289-261 415-574 373-89 78-53 146 121 146h190c229-1 375 93 377 311 0 131-55 232-164 304S691 492 487 492c-156 0-275-28-357-82S6 280 6 182C6 26 113-51 254-84c-55-22-119-89-117-162 3-107 68-140 144-190C169-483 89-600 90-756c1-259 185-383 459-383zM467 14c-100-2-199 51-197 144 3 184 368 146 487 90 62-30 93-71 93-123 0-42-19-70-55-87-64-30-222-23-328-24zm82-569c118 0 165-80 166-197 0-135-55-202-166-202-112 0-168 67-168 202 0 117 52 197 168 197" id="R"/><g id="a"><use transform="matrix(0.010850694444444437,0,0,0.010850694444444437,0,0)" xlink:href="#M"/><use transform="matrix(0.010850694444444437,0,0,0.010850694444444437,12.239583333333325,0)" xlink:href="#N"/><use transform="matrix(0.010850694444444437,0,0,0.010850694444444437,25.368923611111093,0)" xlink:href="#O"/><use transform="matrix(0.010850694444444437,0,0,0.010850694444444437,39.97395833333331,0)" xlink:href="#P"/><use transform="matrix(0.010850694444444437,0,0,0.010850694444444437,51.01996527777774,0)" xlink:href="#Q"/><use transform="matrix(0.010850694444444437,0,0,0.010850694444444437,57.801649305555515,0)" xlink:href="#O"/><use transform="matrix(0.010850694444444437,0,0,0.010850694444444437,72.40668402777773,0)" xlink:href="#R"/></g><path fill="#3a414a" d="M881-995c0-154-85-213-246-213H494v434h102c173 1 285-62 285-221zm-230-467c334-1 543 136 543 456 0 330-225 489-567 486H494V0H184v-1462h467" id="S"/><path fill="#3a414a" d="M451-930c71-134 228-244 436-200l-23 286c-220-45-399 61-399 275V0H160v-1118h231l45 188h15" id="T"/><path fill="#3a414a" d="M954-63C853 0 774 20 614 20 266 20 92-171 92-553c0-369 188-586 549-586 129 0 245 25 348 76l-90 236c-84-31-156-66-258-66-159 0-238 113-238 338 0 219 79 328 238 328 137 0 223-38 313-97v261" id="U"/><path fill="#3a414a" d="M782-1139c293 0 422 256 422 578 0 230-70 418-202 512-65 46-141 69-228 69-131 0-234-48-309-143h-16c32 222 9 383 16 615H160v-1610h248l43 145h14c71-111 177-166 317-166zm111 574c0-190-40-330-209-330-184 0-221 128-219 332 2 209 40 336 223 336 137 0 205-113 205-338" id="V"/><path fill="#3a414a" d="M498-350c-2 85 52 126 133 127 53 0 117-12 192-35v227C747 3 654 20 543 20c-247 0-350-124-350-370v-539H47v-129l168-102 88-236h195v238h313v229H498v539" id="W"/><path fill="#3a414a" d="M633-893c-183 0-230 133-230 332s48 336 232 336c183 0 229-137 229-336s-47-332-231-332zm4-246c347 5 535 225 539 578S978 25 631 20C283 15 96-208 92-561c-4-355 196-583 545-578" id="X"/><g id="b"><use transform="matrix(0.010850694444444437,0,0,0.010850694444444437,0,0)" xlink:href="#S"/><use transform="matrix(0.010850694444444437,0,0,0.010850694444444437,13.953993055555546,0)" xlink:href="#N"/><use transform="matrix(0.010850694444444437,0,0,0.010850694444444437,27.083333333333314,0)" xlink:href="#T"/><use transform="matrix(0.010850694444444437,0,0,0.010850694444444437,36.72960069444442,0)" xlink:href="#U"/><use transform="matrix(0.010850694444444437,0,0,0.010850694444444437,48.155381944444414,0)" xlink:href="#N"/><use transform="matrix(0.010850694444444437,0,0,0.010850694444444437,61.28472222222219,0)" xlink:href="#V"/><use transform="matrix(0.010850694444444437,0,0,0.010850694444444437,75.34722222222217,0)" xlink:href="#W"/><use transform="matrix(0.010850694444444437,0,0,0.010850694444444437,84.99348958333327,0)" xlink:href="#Q"/><use transform="matrix(0.010850694444444437,0,0,0.010850694444444437,91.77517361111104,0)" xlink:href="#X"/><use transform="matrix(0.010850694444444437,0,0,0.010850694444444437,105.5338541666666,0)" xlink:href="#O"/></g><path fill="#3a414a" d="M465 0H160v-1556h305V0" id="Y"/><path fill="#3a414a" d="M618-1141c286 0 465 117 465 396V0H870l-59-152h-8C704-33 632 18 432 20 216 22 86-113 86-334c0-119 44-202 124-262 109-82 356-99 570-100 11-142-39-219-174-219-89 0-194 27-315 81l-101-206c129-67 271-101 428-101zm-71 938c137 0 235-88 233-223v-92c-190 3-382 4-381 186 0 86 49 129 148 129" id="Z"/><g id="c"><use transform="matrix(0.010850694444444437,0,0,0.010850694444444437,0,0)" xlink:href="#S"/><use transform="matrix(0.010850694444444437,0,0,0.010850694444444437,13.953993055555546,0)" xlink:href="#Y"/><use transform="matrix(0.010850694444444437,0,0,0.010850694444444437,20.73567708333332,0)" xlink:href="#Z"/><use transform="matrix(0.010850694444444437,0,0,0.010850694444444437,34.157986111111086,0)" xlink:href="#O"/><use transform="matrix(0.010850694444444437,0,0,0.010850694444444437,48.7630208333333,0)" xlink:href="#O"/><use transform="matrix(0.010850694444444437,0,0,0.010850694444444437,63.368055555555515,0)" xlink:href="#Q"/><use transform="matrix(0.010850694444444437,0,0,0.010850694444444437,70.14973958333329,0)" xlink:href="#O"/><use transform="matrix(0.010850694444444437,0,0,0.010850694444444437,84.7547743055555,0)" xlink:href="#R"/></g><path fill="#3a414a" d="M1133-1128c-95-42-202-97-328-97-258 0-367 218-367 498 0 326 122 489 367 489 103 0 227-26 373-77v260C1058-5 924 20 776 20c-443 0-662-290-657-749 5-455 236-754 686-754 142 0 285 34 428 103" id="aa"/><g id="d"><use transform="matrix(0.010850694444444437,0,0,0.010850694444444437,0,0)" xlink:href="#aa"/><use transform="matrix(0.010850694444444437,0,0,0.010850694444444437,14.160156249999991,0)" xlink:href="#X"/><use transform="matrix(0.010850694444444437,0,0,0.010850694444444437,27.918836805555536,0)" xlink:href="#O"/><use transform="matrix(0.010850694444444437,0,0,0.010850694444444437,42.52387152777775,0)" xlink:href="#W"/><use transform="matrix(0.010850694444444437,0,0,0.010850694444444437,52.17013888888885,0)" xlink:href="#T"/><use transform="matrix(0.010850694444444437,0,0,0.010850694444444437,61.81640624999997,0)" xlink:href="#X"/><use transform="matrix(0.010850694444444437,0,0,0.010850694444444437,75.57508680555551,0)" xlink:href="#Y"/></g><path d="M1079 0L973-348H440L334 0H0l516-1468h379L1413 0h-334zM899-608c-127-415-146-457-192-633-22 85-85 296-189 633h381" id="ab"/><path d="M954-63C853 0 774 20 614 20 266 20 92-171 92-553c0-369 188-586 549-586 129 0 245 25 348 76l-90 236c-84-31-156-66-258-66-159 0-238 113-238 338 0 219 79 328 238 328 137 0 223-38 313-97v261" id="ac"/><path d="M498-350c-2 85 52 126 133 127 53 0 117-12 192-35v227C747 3 654 20 543 20c-247 0-350-124-350-370v-539H47v-129l168-102 88-236h195v238h313v229H498v539" id="ad"/><path d="M639-223c202 0 242-139 242-369v-526h305V0H952l-41-143h-16C834-43 709 20 551 20c-263 0-397-147-397-409v-729h305v653c1 148 42 242 180 242" id="ae"/><path d="M618-1141c286 0 465 117 465 396V0H870l-59-152h-8C704-33 632 18 432 20 216 22 86-113 86-334c0-119 44-202 124-262 109-82 356-99 570-100 11-142-39-219-174-219-89 0-194 27-315 81l-101-206c129-67 271-101 428-101zm-71 938c137 0 235-88 233-223v-92c-190 3-382 4-381 186 0 86 49 129 148 129" id="af"/><path d="M479-1407c-1 99-61 150-166 150-111 0-166-50-166-150 0-99 55-149 166-149s166 50 166 149zM465 0H160v-1118h305V0" id="ag"/><path d="M633-893c-183 0-230 133-230 332s48 336 232 336c183 0 229-137 229-336s-47-332-231-332zm4-246c347 5 535 225 539 578S978 25 631 20C283 15 96-208 92-561c-4-355 196-583 545-578" id="ah"/><path d="M795-1139c261-1 398 148 397 410V0H887v-653c-1-148-42-242-180-242-202 0-242 139-242 369V0H160v-1118h233l41 143h17c62-102 185-163 344-164" id="ai"/><g id="e"><use transform="matrix(0.010850694444444437,0,0,0.010850694444444437,0,0)" xlink:href="#ab"/><use transform="matrix(0.010850694444444437,0,0,0.010850694444444437,15.33203124999999,0)" xlink:href="#ac"/><use transform="matrix(0.010850694444444437,0,0,0.010850694444444437,26.757812499999982,0)" xlink:href="#ad"/><use transform="matrix(0.010850694444444437,0,0,0.010850694444444437,36.404079861111086,0)" xlink:href="#ae"/><use transform="matrix(0.010850694444444437,0,0,0.010850694444444437,51.0091145833333,0)" xlink:href="#af"/><use transform="matrix(0.010850694444444437,0,0,0.010850694444444437,64.43142361111107,0)" xlink:href="#ad"/><use transform="matrix(0.010850694444444437,0,0,0.010850694444444437,74.07769097222217,0)" xlink:href="#ag"/><use transform="matrix(0.010850694444444437,0,0,0.010850694444444437,80.85937499999994,0)" xlink:href="#ah"/><use transform="matrix(0.010850694444444437,0,0,0.010850694444444437,94.61805555555549,0)" xlink:href="#ai"/></g><path fill="#3a414a" d="M305-731c0 386 189 602 569 602 101 0 200-12 297-35v-450H844v-152h497v711c-160 50-302 75-514 75-450 0-708-292-702-751 7-475 281-752 758-752 156 0 301 29 436 86l-66 150c-132-56-259-84-381-84-359-3-567 235-567 600" id="aj"/><path fill="#3a414a" d="M1198-240c-25-390-10-810-14-1222h159V0h-194L350-1227h-8c30 405 10 805 16 1227H201v-1462h192l797 1222h8" id="ak"/><path fill="#3a414a" d="M584-1331c-162 0-287 69-287 219 0 118 43 164 123 214 44 28 112 56 203 89 153 55 259 113 317 176s86 144 86 244c-1 276-228 409-520 409-173 0-307-22-400-67v-164c109 46 257 81 406 82 199 1 342-68 342-244 0-120-47-164-132-214-47-28-121-58-218-93-136-49-234-106-292-173s-87-154-87-261c-1-239 209-369 463-369 145 0 279 27 401 80l-53 148c-121-51-238-76-352-76" id="al"/><path fill="#3a414a" d="M731-1462L186 0H20l545-1462h166" id="am"/><path fill="#3a414a" d="M201 0v-1462h170V0H201" id="an"/><path fill="#3a414a" d="M848 0L352-1296h-8c27 395 8 875 14 1296H201v-1462h256L920-256h8l467-1206h254V0h-170c6-439-13-873 14-1294h-8L985 0H848" id="ao"/><path fill="#3a414a" d="M750-129c245 0 385-137 385-381v-952h170v946c3 336-225 536-566 536-344 0-553-202-553-540v-942h170v954c0 248 141 379 394 379" id="ap"/><g id="f"><use transform="matrix(0.010850694444444437,0,0,0.010850694444444437,0,0)" xlink:href="#aj"/><use transform="matrix(0.010850694444444437,0,0,0.010850694444444437,16.178385416666657,0)" xlink:href="#ak"/><use transform="matrix(0.010850694444444437,0,0,0.010850694444444437,32.93185763888887,0)" xlink:href="#al"/><use transform="matrix(0.010850694444444437,0,0,0.010850694444444437,45.128038194444414,0)" xlink:href="#al"/><use transform="matrix(0.010850694444444437,0,0,0.010850694444444437,57.324218749999964,0)" xlink:href="#am"/><use transform="matrix(0.010850694444444437,0,0,0.010850694444444437,65.48394097222217,0)" xlink:href="#an"/><use transform="matrix(0.010850694444444437,0,0,0.010850694444444437,71.67968749999994,0)" xlink:href="#ao"/><use transform="matrix(0.010850694444444437,0,0,0.010850694444444437,91.74262152777771,0)" xlink:href="#ap"/></g><path fill="#3a414a" d="M694-1116c270 0 399 125 398 401V0H926v-709c-1-177-76-266-252-266-250 0-332 133-332 400V0H176v-1096h135l27 150h8c62-101 190-170 348-170" id="aq"/><path fill="#3a414a" d="M354-322c-2 123 60 204 176 205 51 1 114-10 150-20v127C647 7 557 20 506 20 294 20 188-92 188-315v-652H31v-80l157-69 70-234h96v254h318v129H354v645" id="ar"/><path fill="#3a414a" d="M995-51C878-2 799 19 639 20c-329 2-524-221-524-559 0-326 172-577 481-577 278 0 451 210 446 493v105H287c4 242 121 392 358 393 118 0 235-25 350-74v148zM864-653c2-195-85-324-270-324-190 0-288 139-303 324h573" id="as"/><path fill="#3a414a" d="M340-893c80-153 237-262 467-211l-23 154c-45-10-85-15-120-15-184-3-322 182-322 377V0H176v-1096h137l19 203h8" id="at"/><path fill="#3a414a" d="M575-1430c-169 0-190 146-184 334h279v129H391V0H225v-967H29v-75l196-60c-15-299 97-465 353-465 58 0 126 12 204 35l-43 133c-64-21-119-31-164-31" id="au"/><path fill="#3a414a" d="M588-1114c260 0 384 106 385 366V0H850l-33-156h-8C708-34 639 17 442 20 231 23 94-94 94-303c0-221 177-337 531-348l186-6c11-203-40-320-233-320-91 0-195 28-310 84l-51-127c97-53 229-94 371-94zM268-301c-1 123 81 184 207 184 203 0 334-120 332-323v-99c-257 14-539-7-539 238" id="av"/><path fill="#3a414a" d="M287-543c-1 247 91 418 323 418 91 0 185-20 281-59v147C818 1 725 20 614 20c-329 0-499-221-499-561 0-349 172-575 510-575 96 0 221 26 282 57l-51 141c-61-25-157-50-235-51-223 0-334 142-334 426" id="aw"/><g id="g"><use transform="matrix(0.010850694444444437,0,0,0.010850694444444437,0,0)" xlink:href="#an"/><use transform="matrix(0.010850694444444437,0,0,0.010850694444444437,6.195746527777773,0)" xlink:href="#aq"/><use transform="matrix(0.010850694444444437,0,0,0.010850694444444437,19.83506944444443,0)" xlink:href="#ar"/><use transform="matrix(0.010850694444444437,0,0,0.010850694444444437,27.68012152777776,0)" xlink:href="#as"/><use transform="matrix(0.010850694444444437,0,0,0.010850694444444437,40.147569444444414,0)" xlink:href="#at"/><use transform="matrix(0.010850694444444437,0,0,0.010850694444444437,49.218749999999964,0)" xlink:href="#au"/><use transform="matrix(0.010850694444444437,0,0,0.010850694444444437,56.74913194444439,0)" xlink:href="#av"/><use transform="matrix(0.010850694444444437,0,0,0.010850694444444437,69.10807291666661,0)" xlink:href="#aw"/><use transform="matrix(0.010850694444444437,0,0,0.010850694444444437,79.68749999999994,0)" xlink:href="#as"/></g><path fill="#3a414a" d="M125-733c6-459 248-750 704-750 153 0 287 28 402 84l-72 146c-111-52-221-78-332-78-334-1-520 251-520 600 0 361 171 600 518 600 102 0 218-18 349-55v149C1073 1 948 20 799 20c-445 1-680-294-674-753" id="ax"/><path fill="#3a414a" d="M1368-1116c259 2 372 131 371 401V0h-166v-713c0-168-66-262-230-262-221 0-303 131-303 363V0H874v-713c-1-169-66-262-231-262-235 0-301 142-301 400V0H176v-1096h135l27 150h8c56-99 174-170 324-170 171 0 283 62 336 186h8c60-108 189-187 354-186" id="ay"/><g id="h"><use transform="matrix(0.010850694444444437,0,0,0.010850694444444437,0,0)" xlink:href="#ax"/><use transform="matrix(0.010850694444444437,0,0,0.010850694444444437,14.019097222222213,0)" xlink:href="#av"/><use transform="matrix(0.010850694444444437,0,0,0.010850694444444437,26.378038194444425,0)" xlink:href="#ay"/><use transform="matrix(0.010850694444444437,0,0,0.010850694444444437,47.048611111111086,0)" xlink:href="#as"/><use transform="matrix(0.010850694444444437,0,0,0.010850694444444437,59.51605902777775,0)" xlink:href="#at"/><use transform="matrix(0.010850694444444437,0,0,0.010850694444444437,68.14236111111107,0)" xlink:href="#av"/></g><g id="i"><use transform="matrix(0.010850694444444437,0,0,0.010850694444444437,0,0)" xlink:href="#al"/><use transform="matrix(0.010850694444444437,0,0,0.010850694444444437,12.196180555555546,0)" xlink:href="#ar"/><use transform="matrix(0.010850694444444437,0,0,0.010850694444444437,20.041232638888875,0)" xlink:href="#av"/><use transform="matrix(0.010850694444444437,0,0,0.010850694444444437,32.400173611111086,0)" xlink:href="#ar"/><use transform="matrix(0.010850694444444437,0,0,0.010850694444444437,40.245225694444414,0)" xlink:href="#as"/></g><path fill="#3a414a" d="M1016 0H201v-1462h815v151H371v471h606v150H371v538h645V0" id="az"/><path fill="#3a414a" d="M502-977c-130 0-238 32-238 139 0 75 39 101 95 134 33 19 97 46 192 81 130 48 217 95 263 143s69 108 69 181C883-73 695 20 449 20 304 20 190-3 109-49v-154c91 47 216 86 344 86 149 0 270-36 270-168 0-43-21-76-55-109-56-55-367-158-434-208-74-55-128-109-128-225 0-327 490-342 754-217l-59 135c-110-45-210-68-299-68" id="aA"/><path fill="#3a414a" d="M342 0H176v-1096h166V0zm-82-1282c-61 0-98-43-98-111 0-69 36-110 98-110 59 0 98 43 98 110s-39 111-98 111" id="aB"/><path fill="#3a414a" d="M621-1116c316 0 501 239 501 567 0 339-180 575-508 569S119-212 115-549c-4-339 178-567 506-567zm-5 141c-239 0-329 168-329 426 0 255 93 430 331 430s332-174 332-430-95-426-334-426" id="aC"/><g id="j"><use transform="matrix(0.010850694444444437,0,0,0.010850694444444437,0,0)" xlink:href="#az"/><use transform="matrix(0.010850694444444437,0,0,0.010850694444444437,12.358940972222214,0)" xlink:href="#aA"/><use transform="matrix(0.010850694444444437,0,0,0.010850694444444437,22.96006944444443,0)" xlink:href="#ar"/><use transform="matrix(0.010850694444444437,0,0,0.010850694444444437,30.805121527777757,0)" xlink:href="#aB"/><use transform="matrix(0.010850694444444437,0,0,0.010850694444444437,36.42578124999998,0)" xlink:href="#ay"/><use transform="matrix(0.010850694444444437,0,0,0.010850694444444437,57.09635416666663,0)" xlink:href="#av"/><use transform="matrix(0.010850694444444437,0,0,0.010850694444444437,69.45529513888884,0)" xlink:href="#ar"/><use transform="matrix(0.010850694444444437,0,0,0.010850694444444437,77.30034722222217,0)" xlink:href="#aB"/><use transform="matrix(0.010850694444444437,0,0,0.010850694444444437,82.92100694444439,0)" xlink:href="#aC"/><use transform="matrix(0.010850694444444437,0,0,0.010850694444444437,96.34331597222216,0)" xlink:href="#aq"/></g><path fill="#3a414a" d="M801-1485c433 0 669 306 669 752S1232 20 799 20c-445 0-674-297-674-755 0-456 232-750 676-750zm0 152c-345 0-496 236-496 600 0 367 148 604 494 604 348 0 491-235 491-604 0-366-143-600-489-600" id="aD"/><path fill="#3a414a" d="M686 20c-159 0-273-61-344-161h-12L295 0H176v-1556h166c-2 198 6 423-8 606h8c77-109 192-164 344-164 310 0 455 234 455 565 0 329-147 569-455 569zm283-571c0-257-72-424-307-424-256 0-320 146-320 426s68 430 324 430c228 0 303-184 303-432" id="aE"/><path fill="#3a414a" d="M342 0H176v-1556h166V0" id="aF"/><g id="k"><use transform="matrix(0.010850694444444437,0,0,0.010850694444444437,0,0)" xlink:href="#aD"/><use transform="matrix(0.010850694444444437,0,0,0.010850694444444437,17.30685763888888,0)" xlink:href="#aE"/><use transform="matrix(0.010850694444444437,0,0,0.010850694444444437,30.924479166666647,0)" xlink:href="#aA"/><use transform="matrix(0.010850694444444437,0,0,0.010850694444444437,41.52560763888886,0)" xlink:href="#ar"/><use transform="matrix(0.010850694444444437,0,0,0.010850694444444437,49.370659722222186,0)" xlink:href="#av"/><use transform="matrix(0.010850694444444437,0,0,0.010850694444444437,61.7296006944444,0)" xlink:href="#aw"/><use transform="matrix(0.010850694444444437,0,0,0.010850694444444437,72.30902777777773,0)" xlink:href="#aF"/><use transform="matrix(0.010850694444444437,0,0,0.010850694444444437,77.92968749999994,0)" xlink:href="#as"/></g><path fill="#3a414a" d="M649-1462c450-4 719 268 719 717 0 484-276 748-762 745H201v-1462h448zM578-147c400 1 610-197 610-592 1-379-192-576-570-576H371v1168h207" id="aG"/><g id="l"><use transform="matrix(0.010850694444444437,0,0,0.010850694444444437,0,0)" xlink:href="#aG"/><use transform="matrix(0.010850694444444437,0,0,0.010850694444444437,16.200086805555543,0)" xlink:href="#as"/><use transform="matrix(0.010850694444444437,0,0,0.010850694444444437,28.667534722222197,0)" xlink:href="#ar"/><use transform="matrix(0.010850694444444437,0,0,0.010850694444444437,36.51258680555553,0)" xlink:href="#as"/><use transform="matrix(0.010850694444444437,0,0,0.010850694444444437,48.980034722222186,0)" xlink:href="#aw"/><use transform="matrix(0.010850694444444437,0,0,0.010850694444444437,59.559461805555515,0)" xlink:href="#ar"/><use transform="matrix(0.010850694444444437,0,0,0.010850694444444437,67.40451388888884,0)" xlink:href="#aB"/><use transform="matrix(0.010850694444444437,0,0,0.010850694444444437,73.02517361111106,0)" xlink:href="#aC"/><use transform="matrix(0.010850694444444437,0,0,0.010850694444444437,86.44748263888883,0)" xlink:href="#aq"/></g><path fill="#3a414a" d="M651 0H481v-1311H18v-151h1096v151H651V0" id="aH"/><g id="m"><use transform="matrix(0.010850694444444437,0,0,0.010850694444444437,0,0)" xlink:href="#aH"/><use transform="matrix(0.010850694444444437,0,0,0.010850694444444437,10.742187499999993,0)" xlink:href="#as"/><use transform="matrix(0.010850694444444437,0,0,0.010850694444444437,23.20963541666665,0)" xlink:href="#at"/><use transform="matrix(0.010850694444444437,0,0,0.010850694444444437,32.2808159722222,0)" xlink:href="#at"/><use transform="matrix(0.010850694444444437,0,0,0.010850694444444437,40.90711805555553,0)" xlink:href="#av"/><use transform="matrix(0.010850694444444437,0,0,0.010850694444444437,53.26605902777774,0)" xlink:href="#aB"/><use transform="matrix(0.010850694444444437,0,0,0.010850694444444437,58.88671874999996,0)" xlink:href="#aq"/></g><path fill="#3a414a" d="M125-741c0-247 161-377 414-375 57 0 109 7 155 20h379v105l-203 24c37 48 72 129 72 219 0 255-227 390-504 345-71 37-106 84-106 141 0 78 66 88 164 88h194c219-1 369 87 369 293 0 121-49 213-146 277s-239 96-426 96c-250 0-448-83-448-306C39 36 147-58 283-86c-52-23-102-79-99-152 4-104 57-143 133-192-107-42-192-164-192-311zM438-25c-143-1-242 70-239 209s131 181 290 181c139 0 242-21 309-63s101-98 101-169c0-147-88-158-262-158H438zm94-970c-158 0-243 88-243 250 0 153 93 233 246 233 162 0 243-79 243-236 0-165-82-247-246-247" id="aI"/><g id="n"><use transform="matrix(0.010850694444444437,0,0,0.010850694444444437,0,0)" xlink:href="#al"/><use transform="matrix(0.010850694444444437,0,0,0.010850694444444437,12.196180555555546,0)" xlink:href="#as"/><use transform="matrix(0.010850694444444437,0,0,0.010850694444444437,24.663628472222207,0)" xlink:href="#aI"/><use transform="matrix(0.010850694444444437,0,0,0.010850694444444437,36.838107638888864,0)" xlink:href="#ay"/><use transform="matrix(0.010850694444444437,0,0,0.010850694444444437,57.508680555555515,0)" xlink:href="#as"/><use transform="matrix(0.010850694444444437,0,0,0.010850694444444437,69.97612847222217,0)" xlink:href="#aq"/><use transform="matrix(0.010850694444444437,0,0,0.010850694444444437,83.61545138888883,0)" xlink:href="#ar"/><use transform="matrix(0.010850694444444437,0,0,0.010850694444444437,91.46050347222216,0)" xlink:href="#av"/><use transform="matrix(0.010850694444444437,0,0,0.010850694444444437,103.81944444444437,0)" xlink:href="#ar"/><use transform="matrix(0.010850694444444437,0,0,0.010850694444444437,111.6644965277777,0)" xlink:href="#aB"/><use transform="matrix(0.010850694444444437,0,0,0.010850694444444437,117.28515624999991,0)" xlink:href="#aC"/><use transform="matrix(0.010850694444444437,0,0,0.010850694444444437,130.7074652777777,0)" xlink:href="#aq"/></g><g id="o"><use transform="matrix(0.010850694444444437,0,0,0.010850694444444437,0,0)" xlink:href="#aj"/><use transform="matrix(0.010850694444444437,0,0,0.010850694444444437,16.178385416666657,0)" xlink:href="#aF"/><use transform="matrix(0.010850694444444437,0,0,0.010850694444444437,21.799045138888875,0)" xlink:href="#aC"/><use transform="matrix(0.010850694444444437,0,0,0.010850694444444437,35.22135416666664,0)" xlink:href="#aE"/><use transform="matrix(0.010850694444444437,0,0,0.010850694444444437,48.838975694444414,0)" xlink:href="#av"/><use transform="matrix(0.010850694444444437,0,0,0.010850694444444437,61.19791666666663,0)" xlink:href="#aF"/></g><path fill="#3a414a" d="M1128-1036c0 321-241 464-585 461H371V0H201v-1462h379c365 0 548 142 548 426zm-176 8c0-218-150-286-391-287H371v594h153c270-3 428-62 428-307" id="aJ"/><path fill="#3a414a" d="M690-1114c271 2 402 123 402 399V0H926v-709c-1-177-76-266-252-266-251 0-332 135-332 402V0H176v-1556h166c-4 200 8 426-8 612h10c61-100 187-171 346-170" id="aK"/><g id="p"><use transform="matrix(0.010850694444444437,0,0,0.010850694444444437,0,0)" xlink:href="#aJ"/><use transform="matrix(0.010850694444444437,0,0,0.010850694444444437,13.378906249999991,0)" xlink:href="#av"/><use transform="matrix(0.010850694444444437,0,0,0.010850694444444437,25.737847222222204,0)" xlink:href="#ar"/><use transform="matrix(0.010850694444444437,0,0,0.010850694444444437,33.582899305555536,0)" xlink:href="#aK"/></g><g id="q"><use transform="matrix(0.010850694444444437,0,0,0.010850694444444437,0,0)" xlink:href="#aJ"/><use transform="matrix(0.010850694444444437,0,0,0.010850694444444437,13.378906249999991,0)" xlink:href="#aF"/><use transform="matrix(0.010850694444444437,0,0,0.010850694444444437,18.99956597222221,0)" xlink:href="#av"/><use transform="matrix(0.010850694444444437,0,0,0.010850694444444437,31.35850694444442,0)" xlink:href="#aq"/><use transform="matrix(0.010850694444444437,0,0,0.010850694444444437,44.99782986111109,0)" xlink:href="#aq"/><use transform="matrix(0.010850694444444437,0,0,0.010850694444444437,58.637152777777736,0)" xlink:href="#as"/><use transform="matrix(0.010850694444444437,0,0,0.010850694444444437,71.1046006944444,0)" xlink:href="#at"/></g><path fill="#3a414a" d="M201 0v-1462h170v1308h645V0H201" id="aL"/><g id="r"><use transform="matrix(0.010850694444444437,0,0,0.010850694444444437,0,0)" xlink:href="#aL"/><use transform="matrix(0.010850694444444437,0,0,0.010850694444444437,11.534288194444438,0)" xlink:href="#aC"/><use transform="matrix(0.010850694444444437,0,0,0.010850694444444437,24.956597222222204,0)" xlink:href="#aw"/><use transform="matrix(0.010850694444444437,0,0,0.010850694444444437,35.536024305555536,0)" xlink:href="#av"/><use transform="matrix(0.010850694444444437,0,0,0.010850694444444437,47.89496527777774,0)" xlink:href="#aF"/></g><path fill="#3a414a" d="M1214-416C1213-138 1004 0 711 0H201v-1462h413c194 0 334 29 421 87s130 150 130 275c0 188-114 295-284 324v10c222 38 333 155 333 350zm-225-667c0-194-147-232-368-232H371v479h280c219-3 338-46 338-247zm43 655c0-204-147-264-370-264H371v547h305c220-1 356-73 356-283" id="aM"/><path fill="#3a414a" d="M516-150c94-315 146-423 332-946h178L610 0H416L0-1096h178c98 281 253 670 330 946h8" id="aN"/><g id="s"><use transform="matrix(0.010850694444444437,0,0,0.010850694444444437,0,0)" xlink:href="#aM"/><use transform="matrix(0.010850694444444437,0,0,0.010850694444444437,14.398871527777768,0)" xlink:href="#as"/><use transform="matrix(0.010850694444444437,0,0,0.010850694444444437,26.866319444444425,0)" xlink:href="#aK"/><use transform="matrix(0.010850694444444437,0,0,0.010850694444444437,40.505642361111086,0)" xlink:href="#av"/><use transform="matrix(0.010850694444444437,0,0,0.010850694444444437,52.8645833333333,0)" xlink:href="#aN"/><use transform="matrix(0.010850694444444437,0,0,0.010850694444444437,63.99739583333329,0)" xlink:href="#aB"/><use transform="matrix(0.010850694444444437,0,0,0.010850694444444437,69.61805555555551,0)" xlink:href="#aC"/><use transform="matrix(0.010850694444444437,0,0,0.010850694444444437,83.04036458333329,0)" xlink:href="#at"/></g><g id="t"><use transform="matrix(0.010850694444444437,0,0,0.010850694444444437,0,0)" xlink:href="#aH"/><use transform="matrix(0.010850694444444437,0,0,0.010850694444444437,11.187065972222214,0)" xlink:href="#at"/><use transform="matrix(0.010850694444444437,0,0,0.010850694444444437,19.813368055555543,0)" xlink:href="#as"/><use transform="matrix(0.010850694444444437,0,0,0.010850694444444437,32.2808159722222,0)" xlink:href="#as"/></g><g id="u"><use transform="matrix(0.010850694444444437,0,0,0.010850694444444437,0,0)" xlink:href="#ao"/><use transform="matrix(0.010850694444444437,0,0,0.010850694444444437,20.062934027777764,0)" xlink:href="#aC"/><use transform="matrix(0.010850694444444437,0,0,0.010850694444444437,33.48524305555553,0)" xlink:href="#ar"/><use transform="matrix(0.010850694444444437,0,0,0.010850694444444437,41.33029513888886,0)" xlink:href="#aB"/><use transform="matrix(0.010850694444444437,0,0,0.010850694444444437,46.95095486111108,0)" xlink:href="#aC"/><use transform="matrix(0.010850694444444437,0,0,0.010850694444444437,60.373263888888836,0)" xlink:href="#aq"/></g><g id="v"><use transform="matrix(0.010850694444444437,0,0,0.010850694444444437,0,0)" xlink:href="#aJ"/><use transform="matrix(0.010850694444444437,0,0,0.010850694444444437,13.378906249999991,0)" xlink:href="#an"/><use transform="matrix(0.010850694444444437,0,0,0.010850694444444437,19.574652777777764,0)" xlink:href="#aG"/></g><g id="w"><use transform="matrix(0.010850694444444437,0,0,0.010850694444444437,0,0)" xlink:href="#aJ"/><use transform="matrix(0.010850694444444437,0,0,0.010850694444444437,13.378906249999991,0)" xlink:href="#aF"/><use transform="matrix(0.010850694444444437,0,0,0.010850694444444437,18.99956597222221,0)" xlink:href="#av"/><use transform="matrix(0.010850694444444437,0,0,0.010850694444444437,31.35850694444442,0)" xlink:href="#aq"/><use transform="matrix(0.010850694444444437,0,0,0.010850694444444437,44.99782986111109,0)" xlink:href="#ar"/><use transform="matrix(0.010850694444444437,0,0,0.010850694444444437,52.84288194444442,0)" xlink:href="#aB"/><use transform="matrix(0.010850694444444437,0,0,0.010850694444444437,58.463541666666636,0)" xlink:href="#aq"/><use transform="matrix(0.010850694444444437,0,0,0.010850694444444437,72.10286458333329,0)" xlink:href="#aI"/></g><g id="x"><use transform="matrix(0.010850694444444437,0,0,0.010850694444444437,0,0)" xlink:href="#ax"/><use transform="matrix(0.010850694444444437,0,0,0.010850694444444437,14.019097222222213,0)" xlink:href="#aC"/><use transform="matrix(0.010850694444444437,0,0,0.010850694444444437,27.441406249999975,0)" xlink:href="#aq"/><use transform="matrix(0.010850694444444437,0,0,0.010850694444444437,41.080729166666636,0)" xlink:href="#ar"/><use transform="matrix(0.010850694444444437,0,0,0.010850694444444437,48.925781249999964,0)" xlink:href="#at"/><use transform="matrix(0.010850694444444437,0,0,0.010850694444444437,57.55208333333329,0)" xlink:href="#aC"/><use transform="matrix(0.010850694444444437,0,0,0.010850694444444437,70.97439236111106,0)" xlink:href="#aF"/><use transform="matrix(0.010850694444444437,0,0,0.010850694444444437,76.59505208333327,0)" xlink:href="#aF"/><use transform="matrix(0.010850694444444437,0,0,0.010850694444444437,82.21571180555549,0)" xlink:href="#as"/><use transform="matrix(0.010850694444444437,0,0,0.010850694444444437,94.68315972222214,0)" xlink:href="#at"/></g><g id="y"><use transform="matrix(0.010850694444444437,0,0,0.010850694444444437,0,0)" xlink:href="#ao"/><use transform="matrix(0.010850694444444437,0,0,0.010850694444444437,20.062934027777764,0)" xlink:href="#aC"/><use transform="matrix(0.010850694444444437,0,0,0.010850694444444437,33.48524305555553,0)" xlink:href="#ar"/><use transform="matrix(0.010850694444444437,0,0,0.010850694444444437,41.33029513888886,0)" xlink:href="#aC"/><use transform="matrix(0.010850694444444437,0,0,0.010850694444444437,54.75260416666663,0)" xlink:href="#at"/></g><g id="z"><use transform="matrix(0.010850694444444437,0,0,0.010850694444444437,0,0)" xlink:href="#aL"/><use transform="matrix(0.010850694444444437,0,0,0.010850694444444437,11.534288194444438,0)" xlink:href="#aC"/><use transform="matrix(0.010850694444444437,0,0,0.010850694444444437,24.956597222222204,0)" xlink:href="#aw"/><use transform="matrix(0.010850694444444437,0,0,0.010850694444444437,35.536024305555536,0)" xlink:href="#av"/><use transform="matrix(0.010850694444444437,0,0,0.010850694444444437,47.89496527777774,0)" xlink:href="#aF"/></g><path fill="#3a414a" d="M1141-549c0 329-147 569-455 569-159 0-273-61-344-161h-12c23 199 7 418 12 633H176v-1588h135l23 150h8c77-108 175-170 344-170 311 0 455 237 455 567zm-172-2c0-242-88-424-307-424-256 0-323 154-320 426 3 280 68 430 324 430 213 0 303-196 303-432" id="aO"/><g id="A"><use transform="matrix(0.010850694444444437,0,0,0.010850694444444437,0,0)" xlink:href="#ax"/><use transform="matrix(0.010850694444444437,0,0,0.010850694444444437,14.019097222222213,0)" xlink:href="#aC"/><use transform="matrix(0.010850694444444437,0,0,0.010850694444444437,27.441406249999975,0)" xlink:href="#aA"/><use transform="matrix(0.010850694444444437,0,0,0.010850694444444437,38.04253472222219,0)" xlink:href="#ar"/><use transform="matrix(0.010850694444444437,0,0,0.010850694444444437,45.88758680555552,0)" xlink:href="#ay"/><use transform="matrix(0.010850694444444437,0,0,0.010850694444444437,66.55815972222217,0)" xlink:href="#av"/><use transform="matrix(0.010850694444444437,0,0,0.010850694444444437,78.91710069444439,0)" xlink:href="#aO"/></g><g id="B"><use transform="matrix(0.010850694444444437,0,0,0.010850694444444437,0,0)" xlink:href="#aj"/><use transform="matrix(0.010850694444444437,0,0,0.010850694444444437,16.178385416666657,0)" xlink:href="#as"/><use transform="matrix(0.010850694444444437,0,0,0.010850694444444437,28.645833333333314,0)" xlink:href="#aq"/><use transform="matrix(0.010850694444444437,0,0,0.010850694444444437,42.28515624999997,0)" xlink:href="#as"/><use transform="matrix(0.010850694444444437,0,0,0.010850694444444437,54.75260416666663,0)" xlink:href="#at"/><use transform="matrix(0.010850694444444437,0,0,0.010850694444444437,63.37890624999996,0)" xlink:href="#av"/><use transform="matrix(0.010850694444444437,0,0,0.010850694444444437,75.73784722222217,0)" xlink:href="#ar"/><use transform="matrix(0.010850694444444437,0,0,0.010850694444444437,83.5828993055555,0)" xlink:href="#aC"/><use transform="matrix(0.010850694444444437,0,0,0.010850694444444437,97.00520833333327,0)" xlink:href="#at"/></g><path fill="#333" d="M622-1349c296 4 497 117 497 404 0 282-193 424-485 431H353V0H162v-1349h460zm-15 684c195-3 320-88 320-277 0-184-129-255-328-254H353v531h254" id="aP"/><path fill="#333" d="M736-142h380V0H134v-142h422v-1200H267v-142h469v1342" id="aQ"/><path fill="#333" d="M1000-272c3 95 12 159 101 161 21 0 41-3 59-7V-6c-44 10-86 16-139 16-141 2-191-84-197-217h-6C748-76 648 20 446 20c-207 0-318-120-318-322 0-266 194-348 454-354l236-4c12-191-40-305-222-305-140 0-220 47-232 172l-188-17c33-204 181-292 423-292 255 0 401 118 401 364v466zm-683-27c0 109 63 184 175 182 166-3 259-96 306-217 24-65 20-120 20-200-232 7-501-28-501 235" id="aR"/><path fill="#333" d="M706-1102c241 0 344 136 343 381V0H868v-695c1-168-57-273-220-268-190 6-283 138-283 336V0H185c-3-360 6-732-6-1082h170c4 54 7 126 8 185h3c63-121 164-204 346-205" id="aS"/><path fill="#333" d="M682 16c-209 0-323-80-324-285v-671H190v-142h170l58-282h120v282h432v142H538v652c2 114 60 155 182 155 106 0 209-16 297-34v137C921-4 806 16 682 16" id="aT"/><path fill="#333" d="M1034 0L896-382H333L196 0H0l510-1349h217L1228 0h-194zM847-531c-77-225-157-447-231-674-69 231-154 451-232 674h463" id="aU"/><path fill="#333" d="M631 20c-350 0-501-215-501-562 0-355 162-560 502-560 250 0 399 118 446 323l-192 14c-23-124-109-196-262-196-242 0-305 171-305 415 1 245 61 427 304 427 151 0 248-77 267-215l190 12C1039-107 883 20 631 20" id="aV"/><path fill="#333" d="M745-142h380V0H143v-142h422v-798H246v-142h499v940zM545-1292v-192h200v192H545" id="aW"/><path fill="#333" d="M615-1102c343 0 484 203 482 560-1 347-147 562-488 562-336 0-475-219-479-562-4-349 156-560 485-560zm-8 989c240 0 301-180 301-429 0-245-55-427-290-427-236 0-299 181-299 427 0 243 61 429 288 429" id="aX"/><g id="C"><use transform="matrix(0.008680555555555556,0,0,0.008680555555555556,0,0)" xlink:href="#aP"/><use transform="matrix(0.008680555555555556,0,0,0.008680555555555556,10.668402777777779,0)" xlink:href="#aQ"/><use transform="matrix(0.008680555555555556,0,0,0.008680555555555556,21.336805555555557,0)" xlink:href="#aR"/><use transform="matrix(0.008680555555555556,0,0,0.008680555555555556,32.005208333333336,0)" xlink:href="#aS"/><use transform="matrix(0.008680555555555556,0,0,0.008680555555555556,42.673611111111114,0)" xlink:href="#aT"/><use transform="matrix(0.008680555555555556,0,0,0.008680555555555556,53.34201388888889,0)" xlink:href="#aU"/><use transform="matrix(0.008680555555555556,0,0,0.008680555555555556,64.01041666666667,0)" xlink:href="#aV"/><use transform="matrix(0.008680555555555556,0,0,0.008680555555555556,74.67881944444446,0)" xlink:href="#aT"/><use transform="matrix(0.008680555555555556,0,0,0.008680555555555556,85.34722222222223,0)" xlink:href="#aW"/><use transform="matrix(0.008680555555555556,0,0,0.008680555555555556,96.015625,0)" xlink:href="#aX"/><use transform="matrix(0.008680555555555556,0,0,0.008680555555555556,106.68402777777777,0)" xlink:href="#aS"/></g><path fill="#333" d="M602-1462c329 0 526 109 526 413 0 193-98 324-294 392L1231 0h-201L676-608H371V0H201v-1462h401zm350 422c0-215-129-271-360-273H371v559h233c223 0 348-78 348-286" id="aY"/><path fill="#333" d="M995-51C878-2 799 19 639 20c-329 2-524-221-524-559 0-326 172-577 481-577 278 0 451 210 446 493v105H287c4 242 121 392 358 393 118 0 235-25 350-74v148zM864-653c2-195-85-324-270-324-190 0-288 139-303 324h573" id="aZ"/><path fill="#333" d="M287-543c0 246 78 424 303 424 259 0 323-148 323-426 0-279-71-432-325-432-220 0-301 191-301 434zm-172-2c0-328 147-571 454-571 150 0 265 57 346 170h9l24-150h131V492H913c5-208-11-450 11-639h-13C834-36 719 20 565 20c-305 0-450-240-450-565" id="ba"/><path fill="#333" d="M563 20c-271 0-399-123-399-399v-717h168v711c1 177 76 266 252 266 250 0 331-135 331-401v-576h166V0H944l-24-147h-9C848-44 724 20 563 20" id="bb"/><path fill="#333" d="M502-977c-130 0-238 32-238 139 0 75 39 101 95 134 33 19 97 46 192 81 130 48 217 95 263 143s69 108 69 181C883-73 695 20 449 20 304 20 190-3 109-49v-154c91 47 216 86 344 86 149 0 270-36 270-168 0-43-21-76-55-109-56-55-367-158-434-208-74-55-128-109-128-225 0-327 490-342 754-217l-59 135c-110-45-210-68-299-68" id="bc"/><path fill="#333" d="M354-322c-2 123 60 204 176 205 51 1 114-10 150-20v127C647 7 557 20 506 20 294 20 188-92 188-315v-652H31v-80l157-69 70-234h96v254h318v129H354v645" id="bd"/><g id="D"><use transform="matrix(0.008680555555555556,0,0,0.008680555555555556,0,0)" xlink:href="#aY"/><use transform="matrix(0.008680555555555556,0,0,0.008680555555555556,10.989583333333334,0)" xlink:href="#aZ"/><use transform="matrix(0.008680555555555556,0,0,0.008680555555555556,20.963541666666668,0)" xlink:href="#ba"/><use transform="matrix(0.008680555555555556,0,0,0.008680555555555556,31.857638888888893,0)" xlink:href="#bb"/><use transform="matrix(0.008680555555555556,0,0,0.008680555555555556,42.76909722222223,0)" xlink:href="#aZ"/><use transform="matrix(0.008680555555555556,0,0,0.008680555555555556,52.743055555555564,0)" xlink:href="#bc"/><use transform="matrix(0.008680555555555556,0,0,0.008680555555555556,61.22395833333334,0)" xlink:href="#bd"/></g><path fill="#333" d="M371 0H201v-1462h815v151H371v535h606v151H371V0" id="be"/><path fill="#333" d="M115-545c0-330 146-571 454-571 149 0 263 54 342 162h13c-20-185-8-401-11-602h166V0H944l-22-147h-9C836-36 722 20 569 20c-309 0-454-234-454-565zm172 2c0 249 78 424 303 424 257 0 327-150 323-426-4-282-68-432-325-432-220 0-301 191-301 434" id="bf"/><path fill="#333" d="M686 20c-159 0-273-61-344-161h-12L295 0H176v-1556h166c-2 198 6 423-8 606h8c77-109 192-164 344-164 310 0 455 234 455 565 0 329-147 569-455 569zm283-571c0-257-72-424-307-424-256 0-320 146-320 426s68 430 324 430c228 0 303-184 303-432" id="bg"/><path fill="#333" d="M588-1114c260 0 384 106 385 366V0H850l-33-156h-8C708-34 639 17 442 20 231 23 94-94 94-303c0-221 177-337 531-348l186-6c11-203-40-320-233-320-91 0-195 28-310 84l-51-127c97-53 229-94 371-94zM268-301c-1 123 81 184 207 184 203 0 334-120 332-323v-99c-257 14-539-7-539 238" id="bh"/><path fill="#333" d="M287-543c-1 247 91 418 323 418 91 0 185-20 281-59v147C818 1 725 20 614 20c-329 0-499-221-499-561 0-349 172-575 510-575 96 0 221 26 282 57l-51 141c-61-25-157-50-235-51-223 0-334 142-334 426" id="bi"/><path fill="#333" d="M340-561c134-179 332-366 485-535h197L578-629 1053 0H852L465-518 340-410V0H176v-1556h164c-4 336 9 669-8 995h8" id="bj"/><g id="E"><use transform="matrix(0.008680555555555556,0,0,0.008680555555555556,0,0)" xlink:href="#be"/><use transform="matrix(0.008680555555555556,0,0,0.008680555555555556,9.175347222222223,0)" xlink:href="#aZ"/><use transform="matrix(0.008680555555555556,0,0,0.008680555555555556,19.149305555555557,0)" xlink:href="#aZ"/><use transform="matrix(0.008680555555555556,0,0,0.008680555555555556,29.123263888888893,0)" xlink:href="#bf"/><use transform="matrix(0.008680555555555556,0,0,0.008680555555555556,40.017361111111114,0)" xlink:href="#bg"/><use transform="matrix(0.008680555555555556,0,0,0.008680555555555556,50.911458333333336,0)" xlink:href="#bh"/><use transform="matrix(0.008680555555555556,0,0,0.008680555555555556,60.798611111111114,0)" xlink:href="#bi"/><use transform="matrix(0.008680555555555556,0,0,0.008680555555555556,69.26215277777779,0)" xlink:href="#bj"/></g><path fill="#333" d="M614-1348c-112 0-206 67-200 177 7 140 70 184 159 282 86-50 145-97 179-139s51-91 51-146c1-105-80-174-189-174zM285-383c-2 159 121 254 284 254 161 0 294-51 400-154L532-707c-119 77-173 104-225 208-16 33-22 73-22 116zM565 20c-271 4-452-139-452-399 0-87 23-163 69-230s130-134 250-202c-92-107-127-131-164-246-81-253 95-428 353-428 207 0 350 113 348 316 0 71-23 137-68 197S781-850 676-788l407 391c77-83 114-198 146-328h168c-45 191-114 335-205 434L1491 0h-229l-185-178C936-53 803 16 565 20" id="bk"/><use transform="matrix(0.008680555555555556,0,0,0.008680555555555556,0,0)" xlink:href="#bk" id="F"/><path fill="#333" d="M1141-549c0 329-147 569-455 569-159 0-273-61-344-161h-12c23 199 7 418 12 633H176v-1588h135l23 150h8c77-108 175-170 344-170 311 0 455 237 455 567zm-172-2c0-242-88-424-307-424-256 0-323 154-320 426 3 280 68 430 324 430 213 0 303-196 303-432" id="bl"/><path fill="#333" d="M621-1116c316 0 501 239 501 567 0 339-180 575-508 569S119-212 115-549c-4-339 178-567 506-567zm-5 141c-239 0-329 168-329 426 0 255 93 430 331 430s332-174 332-430-95-426-334-426" id="bm"/><path fill="#333" d="M694-1116c270 0 399 125 398 401V0H926v-709c-1-177-76-266-252-266-250 0-332 133-332 400V0H176v-1096h135l27 150h8c62-101 190-170 348-170" id="bn"/><g id="G"><use transform="matrix(0.008680555555555556,0,0,0.008680555555555556,0,0)" xlink:href="#aY"/><use transform="matrix(0.008680555555555556,0,0,0.008680555555555556,10.989583333333334,0)" xlink:href="#aZ"/><use transform="matrix(0.008680555555555556,0,0,0.008680555555555556,20.963541666666668,0)" xlink:href="#bc"/><use transform="matrix(0.008680555555555556,0,0,0.008680555555555556,29.444444444444446,0)" xlink:href="#bl"/><use transform="matrix(0.008680555555555556,0,0,0.008680555555555556,40.33854166666667,0)" xlink:href="#bm"/><use transform="matrix(0.008680555555555556,0,0,0.008680555555555556,51.07638888888889,0)" xlink:href="#bn"/><use transform="matrix(0.008680555555555556,0,0,0.008680555555555556,61.98784722222222,0)" xlink:href="#bc"/><use transform="matrix(0.008680555555555556,0,0,0.008680555555555556,70.46875,0)" xlink:href="#aZ"/></g><path fill="#3a414a" d="M371 0H201v-1462h815v151H371v535h606v151H371V0" id="bo"/><g id="H"><use transform="matrix(0.010850694444444437,0,0,0.010850694444444437,0,0)" xlink:href="#bo"/><use transform="matrix(0.010850694444444437,0,0,0.010850694444444437,11.46918402777777,0)" xlink:href="#aC"/><use transform="matrix(0.010850694444444437,0,0,0.010850694444444437,24.891493055555532,0)" xlink:href="#at"/><use transform="matrix(0.010850694444444437,0,0,0.010850694444444437,33.517795138888864,0)" xlink:href="#as"/><use transform="matrix(0.010850694444444437,0,0,0.010850694444444437,45.98524305555552,0)" xlink:href="#aA"/><use transform="matrix(0.010850694444444437,0,0,0.010850694444444437,56.58637152777774,0)" xlink:href="#ar"/></g><path fill="#3a414a" d="M750-1268l389 1144 138 43-9 81H753l12-74 171-55-109-304H408L295-124l187 43-12 81H2l10-74 148-55 438-1108zM446-534h352l-167-500" id="bp"/><path fill="#3a414a" d="M595-906c66 0 121 51 120 113-1 44-27 84-78 119-78-63-140-71-206 8-33 38-64 92-64 161v384l231 34-10 87H36l12-74 152-40v-614L38-776l13-76 286-38 20 23-16 231h19c25-87 60-153 103-200s87-70 132-70" id="bq"/><path fill="#3a414a" d="M585-898c281 0 391 374 281 636C794-91 643 23 413 23 306 23 215-1 139-49v-1059l-152-53 13-76 277-21 25 23v386l-15 104h12c91-102 186-153 286-153zM513-87c245 0 262-414 152-597-27-44-79-84-148-84-83 0-154 32-215 96v517c40 41 128 68 211 68" id="br"/><path fill="#3a414a" d="M456-798c-260 0-247 403-155 590 35 74 104 137 207 137 251 0 236-392 149-581-35-76-99-146-201-146zm42-105c252-7 401 201 395 462-6 271-155 455-419 467C146 41-19-316 100-628c61-160 191-269 398-275" id="bs"/><g id="I"><use transform="matrix(0.01953124999999999,0,0,0.01953124999999999,0,0)" xlink:href="#bp"/><use transform="matrix(0.01953124999999999,0,0,0.01953124999999999,24.960937499999986,0)" xlink:href="#bq"/><use transform="matrix(0.01953124999999999,0,0,0.01953124999999999,38.98437499999998,0)" xlink:href="#br"/><use transform="matrix(0.01953124999999999,0,0,0.01953124999999999,57.92968749999997,0)" xlink:href="#bs"/><use transform="matrix(0.01953124999999999,0,0,0.01953124999999999,76.62109374999996,0)" xlink:href="#bq"/></g><path fill="#3a414a" d="M497-1253c267 0 501 50 501 310 0 170-141 294-287 345 92 125 188 261 281 382 58 75 119 122 225 149l-15 69c-118 38-232 18-317-53-132-112-222-328-318-486H393v411l189 44-10 82H23l10-74 169-47v-980l-172-30 9-76c196-31 349-46 458-46zm16 83c-39 0-88 3-120 5v537h198c104-35 200-122 200-259 0-167-108-283-278-283" id="bt"/><path fill="#3a414a" d="M364 23c-175 2-214-129-213-313l3-493H26v-54c84-66 167-150 248-251h53v219h282l-8 88H326c-1 154-4 308-4 462 0 133 27 196 147 196 55 0 115-30 144-55l21 54C579-44 489 22 364 23" id="bu"/><path fill="#3a414a" d="M61-79l152-37v-615L61-786l13-76 281-23 25 25v744l160 35-11 81H49zm108-1115c0-62 56-113 118-113 63 0 123 52 123 114 0 64-60 123-123 123-64 0-118-59-118-124" id="bv"/><path fill="#3a414a" d="M442-806c-211 0-233 340-152 518C336-186 404-90 543-90c89 0 149-25 202-62l25 58C719-29 580 34 461 30 211 21 66-162 66-416c0-226 111-376 267-450 141-67 398-39 398 119 0 69-55 100-126 105-34-72-64-164-163-164" id="bw"/><path fill="#3a414a" d="M176-838c116-103 437-83 437 104 0 86-56 141-139 146l-8-43c-24-123-74-185-149-185-95 0-147 117-88 190 102 126 313 155 391 306C718-130 518 35 336 35 196 35 51-27 46-141c-3-73 59-127 132-131 21 69 47 121 80 156s69 52 108 52c73 0 138-30 132-101-7-92-99-122-168-162C203-401 25-485 80-697c14-56 56-105 96-141" id="bx"/><g id="J"><use transform="matrix(0.01953124999999999,0,0,0.01953124999999999,0,0)" xlink:href="#bt"/><use transform="matrix(0.01953124999999999,0,0,0.01953124999999999,23.691406249999986,0)" xlink:href="#bs"/><use transform="matrix(0.01953124999999999,0,0,0.01953124999999999,42.38281249999997,0)" xlink:href="#br"/><use transform="matrix(0.01953124999999999,0,0,0.01953124999999999,61.32812499999996,0)" xlink:href="#bs"/><use transform="matrix(0.01953124999999999,0,0,0.01953124999999999,80.01953124999994,0)" xlink:href="#bu"/><use transform="matrix(0.01953124999999999,0,0,0.01953124999999999,92.40234374999996,0)" xlink:href="#bv"/><use transform="matrix(0.01953124999999999,0,0,0.01953124999999999,103.57421874999994,0)" xlink:href="#bw"/><use transform="matrix(0.01953124999999999,0,0,0.01953124999999999,118.86718749999994,0)" xlink:href="#bx"/></g><path fill="#3a414a" d="M692-36C486 71 142 24 33-124l23-314 140 21 40 187c37 56 127 101 220 101 84 0 182-63 178-143-6-139-130-168-230-218C247-568 49-665 49-886c0-144 70-246 203-321 166-93 452-69 580 35l-26 322-136-22-32-166c-29-49-116-98-196-98-123 0-184 146-106 233 83 93 227 133 342 197 119 66 245 173 245 338 0 147-79 253-231 332" id="by"/><path fill="#3a414a" d="M503-119c196-1 172-301 133-465-23-95-84-186-185-186-113 0-169 86-169 258 0 163 31 276 92 340 33 35 76 53 129 53zM468 27C187 27 26-152 26-452c0-286 213-475 480-475 264 0 414 184 414 461 0 278-182 493-452 493" id="bz"/><path fill="#3a414a" d="M18 0l12-116 153-57v-569H34l10-111 138-23c11-232 186-419 412-419 156 0 234 44 234 133 0 66-82 134-138 141-36-55-47-80-95-119-21-17-46-26-75-26-67 0-101 66-104 198l-2 98h260l-12 128H414v562l246 52-8 128H18" id="bA"/><path fill="#3a414a" d="M387-336c0 109 36 161 137 161 46 0 92-14 139-42l25 93C625-40 526 27 374 23 196 18 138-77 139-278l3-445H29v-101c95-65 180-151 255-258h108v220h278l-10 142H389" id="bB"/><path fill="#3a414a" d="M-1-782l17-118h450l-16 116-105 58 89 376 16 2 116-488 184-18 126 512 18-13 80-369-106-58 16-118h392l-18 116-108 58L956 10 771 34 632-500 506 10 323 34 114-724" id="bC"/><path fill="#3a414a" d="M260-247c0 56 41 95 106 95 36 0 75-20 117-59v-202c-149 25-223 80-223 166zM232 24C108 24 24-51 24-178c0-87 39-161 118-222s193-94 341-99v-75c2-104-48-211-141-213-42 0-68 15-79 44s-20 86-27 171c-125-7-181-19-184-126 0-30 22-62 65-100 72-64 214-125 341-126 173 0 260 102 260 307 0 131-9 275 4 399 6 57 68 61 130 72L833-18c-62 46-217 57-271 4-24-23-40-61-51-111l-12-3C467-53 347 24 232 24" id="bD"/><path fill="#3a414a" d="M578-654c-89 0-136 89-154 172v296l236 48L648-1H20l16-117 150-54v-514L34-749l20-122 326-33 31 32-19 185 19 5c25-79 58-139 101-178s88-58 135-58c87 0 147 55 147 136 0 64-30 121-91 172-46-29-88-44-125-44" id="bE"/><path fill="#3a414a" d="M527-610c0-108-37-162-111-162-39 0-72 24-98 70s-40 109-42 188l245-24c4-16 6-40 6-72zM428 30C181 30 26-161 26-429c0-152 64-285 144-361 92-88 194-134 308-134 244 0 351 248 282 498l-480 10c8 151 106 266 272 266 85 0 162-19 230-56l20 93C731-23 581 30 428 30" id="bF"/><g id="K"><use transform="matrix(0.026041666666666644,0,0,0.026041666666666644,0,0)" xlink:href="#by"/><use transform="matrix(0.026041666666666644,0,0,0.026041666666666644,24.322916666666647,0)" xlink:href="#bz"/><use transform="matrix(0.026041666666666644,0,0,0.026041666666666644,49.21874999999996,0)" xlink:href="#bA"/><use transform="matrix(0.026041666666666644,0,0,0.026041666666666644,69.89583333333327,0)" xlink:href="#bB"/><use transform="matrix(0.026041666666666644,0,0,0.026041666666666644,88.25520833333326,0)" xlink:href="#bC"/><use transform="matrix(0.026041666666666644,0,0,0.026041666666666644,121.38020833333323,0)" xlink:href="#bD"/><use transform="matrix(0.026041666666666644,0,0,0.026041666666666644,144.32291666666654,0)" xlink:href="#bE"/><use transform="matrix(0.026041666666666644,0,0,0.026041666666666644,165.23437499999986,0)" xlink:href="#bF"/></g><path fill="#3a414a" d="M472-548h301L627-984zM-18 0l14-106 154-79 414-1036 248-48 390 1088 143 69-11 113H714l14-106 169-79-74-208H418l-74 210 187 68L518 0H-18" id="bG"/><path fill="#3a414a" d="M464 30C186 30 25-151 25-420c0-299 219-505 481-514 138-5 264 71 264 187 0 91-55 141-165 151-23-67-47-116-72-148s-54-47-89-47c-127 0-162 128-162 280 0 175 81 366 272 366 75 0 148-22 220-66l32 81C757-43 604 30 464 30" id="bH"/><path fill="#3a414a" d="M706-504c1-115-41-178-146-178-47 0-95 23-144 70v440l130 50L526 1H12l14-118 148-55v-878L8-1127l18-120 340-25 42 40v358l-18 120 12 2c101-108 201-162 298-162 174 0 244 101 244 295v449l147 49-17 122H631l6-115 67-56" id="bI"/><path fill="#3a414a" d="M288-1024c-101 0-175-51-175-140 0-86 82-134 177-134s178 50 178 135c0 87-80 139-180 139zM18 0l10-128 153-45v-502L32-757l22-125 328-24 40 40v693l161 46L572 0H18" id="bJ"/><path fill="#3a414a" d="M390-393c2 122 20 188 130 188 47 0 93-21 138-63v-395l-138-59 22-150 326-35 37 39v574c-5 123 62 127 159 158l-16 126C901 51 669 61 677-130l-13-2C610-43 515 27 386 27c-185 0-245-97-245-294v-403L10-750l24-132 316-21 40 39v471" id="bK"/><g id="L"><use transform="matrix(0.026041666666666644,0,0,0.026041666666666644,0,0)" xlink:href="#bG"/><use transform="matrix(0.026041666666666644,0,0,0.026041666666666644,34.9739583333333,0)" xlink:href="#bE"/><use transform="matrix(0.026041666666666644,0,0,0.026041666666666644,55.885416666666615,0)" xlink:href="#bH"/><use transform="matrix(0.026041666666666644,0,0,0.026041666666666644,77.16145833333326,0)" xlink:href="#bI"/><use transform="matrix(0.026041666666666644,0,0,0.026041666666666644,105.72916666666657,0)" xlink:href="#bJ"/><use transform="matrix(0.026041666666666644,0,0,0.026041666666666644,121.04166666666656,0)" xlink:href="#bB"/><use transform="matrix(0.026041666666666644,0,0,0.026041666666666644,139.40104166666654,0)" xlink:href="#bF"/><use transform="matrix(0.026041666666666644,0,0,0.026041666666666644,160.8333333333332,0)" xlink:href="#bH"/><use transform="matrix(0.026041666666666644,0,0,0.026041666666666644,182.10937499999986,0)" xlink:href="#bB"/><use transform="matrix(0.026041666666666644,0,0,0.026041666666666644,200.46874999999983,0)" xlink:href="#bK"/><use transform="matrix(0.026041666666666644,0,0,0.026041666666666644,228.38541666666646,0)" xlink:href="#bE"/><use transform="matrix(0.026041666666666644,0,0,0.026041666666666644,249.29687499999977,0)" xlink:href="#bF"/></g></defs></g></svg>